<?xml version="1.0" encoding="UTF-8"?>
<svg id="Layer_2" data-name="Layer 2" xmlns="http://www.w3.org/2000/svg" viewBox="0 0 616.67 716.9">
  <g id="Layer_1-2" data-name="Layer 1">
    <g>
      <path d="m229.99,251.57l-14.73,20.2,14.73-20.2Zm61.68-189.87l-16.92,18.41c9.56,8.79,24.27,8.79,33.83,0l-16.92-18.41Zm61.68,189.87l14.73,20.2-14.73-20.2Zm-61.29,29.13v25h0v-25Zm-47.33-49.13c-23.01-16.77-47.55-37.17-66.09-58.66-19.14-22.19-28.63-41.8-28.63-57.38h-50c0,33.92,19.28,65.14,40.77,90.04,22.09,25.6,50.04,48.58,74.5,66.41l29.45-40.4Zm-94.72-116.05c0-35.29,17.33-55.41,38.18-62.43,21.73-7.31,54.15-2.58,86.57,27.22l33.83-36.81C266.01,4.36,215.08-8.72,172.24,5.7c-43.74,14.72-72.24,55.87-72.24,109.82h50Zm218.07,156.45c24.45-17.83,52.41-40.8,74.5-66.41,21.49-24.91,40.77-56.13,40.77-90.04h-50c0,15.59-9.48,35.19-28.63,57.38-18.54,21.49-43.08,41.89-66.09,58.66l29.45,40.4Zm115.26-156.45c0-53.95-28.5-95.1-72.24-109.82-42.85-14.42-93.77-1.34-136.35,37.79l33.83,36.81c32.42-29.8,64.83-34.53,86.57-27.22,20.85,7.02,38.18,27.14,38.18,62.43h50Zm-267.68,156.25c25.17,18.35,45.13,33.92,76.4,33.92v-50c-12.17,0-18.84-3.84-46.95-24.33l-29.45,40.4Zm123.35-40.4c-28.11,20.49-34.78,24.33-46.95,24.33v50c31.27,0,51.23-15.58,76.4-33.92l-29.45-40.4Z" style="fill: #cf729c; isolation: isolate;"/>
      <path d="m25.05,671.52h75.28c33.7,0,67.75,3.51,100.55,10.27,58.01,11.95,119.08,13.4,177.69,3.91,28.9-4.68,57.3-11.83,83.02-24.24,23.21-11.2,51.65-27,70.75-44.69,19.07-17.66,38.94-46.57,53.03-69.17,12.09-19.38,6.24-43.15-12.88-57.59-21.24-16.04-52.76-16.03-74,.01l-60.24,45.5c-23.35,17.64-48.85,33.87-79.23,38.72-3.65.58-7.48,1.11-11.47,1.58m0-.41c-1.2.14-2.42.27-3.65.4m3.65-.4c4.86-1.04,9.68-4.04,14.21-7.99,21.44-18.71,22.79-50.25,4.19-71.15-4.31-4.85-9.37-8.89-14.98-12.24-93.25-55.62-238.32-13.26-325.97,48.9m322.55,42.48c-1.22.26-2.44.4-3.65.4m0,0c-17.45,1.79-37.85,2.25-60.5.11" style="fill: none; stroke: #fff; stroke-linecap: round; stroke-miterlimit: 133.33; stroke-width: 50px;"/>
    </g>
  </g>
</svg>