<?xml version="1.0" encoding="UTF-8"?>
<svg id="Layer_2" data-name="Layer 2" xmlns="http://www.w3.org/2000/svg" viewBox="0 0 717 616.52">
  <g id="Layer_1-2" data-name="Layer 1">
    <g>
      <path d="m91.87,258.33l20.46-81.84c18.19-72.76,27.28-109.13,54.41-130.31,27.13-21.18,64.62-21.18,139.62-21.18h104.35c75,0,112.49,0,139.62,21.18,27.13,21.18,36.22,57.56,54.41,130.31l20.46,81.84" style="fill: none; isolation: isolate; stroke: #cf729c; stroke-linecap: round; stroke-miterlimit: 133.33; stroke-width: 50px;"/>
      <path d="m291.87,474.85l21.95-10.97c28.15-14.08,61.29-14.08,89.44,0l21.95,10.97" style="fill: none; isolation: isolate; stroke: #cf729c; stroke-linecap: round; stroke-miterlimit: 133.33; stroke-width: 50px;"/>
      <path d="m658.54,474.85c0,64.43-52.23,116.67-116.67,116.67s-116.67-52.23-116.67-116.67,52.23-116.67,116.67-116.67,116.67,52.23,116.67,116.67Z" style="fill: none; stroke: #fff; stroke-miterlimit: 133.33; stroke-width: 50px;"/>
      <path d="m25,258h667" style="fill: none; stroke: #fff; stroke-linecap: round; stroke-miterlimit: 133.33; stroke-width: 50px;"/>
      <path d="m291.87,474.85c0,64.43-52.23,116.67-116.67,116.67s-116.67-52.23-116.67-116.67,52.23-116.67,116.67-116.67,116.67,52.23,116.67,116.67Z" style="fill: none; stroke: #fff; stroke-miterlimit: 133.33; stroke-width: 50px;"/>
    </g>
  </g>
</svg>