<?xml version="1.0" encoding="UTF-8"?>
<svg id="Layer_2" data-name="Layer 2" xmlns="http://www.w3.org/2000/svg" viewBox="0 0 717.05 716.66">
  <g id="Layer_1-2" data-name="Layer 1">
    <g>
      <path d="m394.94,671.26l21.51,12.73-21.51-12.73Zm18.07-30.53l-21.52-12.73,21.52,12.73Zm-108.59,0l-21.51,12.74h0l21.51-12.74Zm18.07,30.53l21.51-12.73-21.51,12.73ZM38.07,488.78l23.1-9.57h0l-23.1,9.57Zm180.93,102.6v24.99-24.99Zm-90.73-12.4l-9.57,23.1h0l9.57-23.1Zm551.09-90.2l23.1,9.57h0l-23.1-9.57Zm-180.36,102.6v-25,25Zm90.16-12.4l9.57,23.1h0l-9.57-23.1Zm23.3-529.42l-13.06,21.32,13.06-21.32Zm55.02,55.02l21.32-13.06h0l-21.32,13.06ZM104.96,49.56l-13.06-21.32h0l13.06,21.32Zm-55.02,55.02l-21.32-13.06h0l21.32,13.06Zm222.2,494.08l12.57-21.61h0l-12.57,21.61Zm144.31,85.33l18.07-30.53-43.03-25.47-18.07,30.53,43.03,25.47Zm-133.54-30.53l18.07,30.53,43.03-25.47-18.07-30.53-43.03,25.47Zm90.51,5.06c-6.42,10.85-22.99,10.85-29.42,0l-43.03,25.47c25.79,43.57,89.69,43.57,115.47,0l-43.03-25.47ZM309,50.07h100V.07h-100v50Zm358,258v33h50v-33h-50ZM50,341.07v-33H0v33h50Zm-49.62,1c0,38.49-.01,68.6,1.64,92.89,1.67,24.52,5.13,44.92,12.95,63.79l46.19-19.13c-4.87-11.76-7.76-26.09-9.26-48.06-1.51-22.19-1.53-50.32-1.53-89.49H.38Zm218.48,224.31c-41.85-.72-63.78-3.38-80.96-10.5l-19.13,46.19c26.83,11.11,57.39,13.58,99.24,14.3l.86-49.99ZM14.97,498.35c19.45,46.96,56.77,84.28,103.73,103.73l19.13-46.19c-34.71-14.38-62.29-41.96-76.67-76.67l-46.19,19.13Zm652.08-156.27c0,39.17-.01,67.3-1.53,89.49-1.5,21.97-4.39,36.3-9.26,48.06l46.19,19.13c7.82-18.87,11.27-39.27,12.95-63.79,1.66-24.29,1.64-54.41,1.64-92.89h-50Zm-167.19,274.3c41.84-.72,72.41-3.19,99.24-14.3l-19.13-46.19c-17.19,7.12-39.12,9.78-80.96,10.5l.86,49.99Zm156.4-137.16c-14.38,34.71-41.96,62.29-76.67,76.67l19.13,46.19c46.96-19.45,84.28-56.77,103.73-103.73l-46.19-19.13ZM409,50c55.04,0,94.57.03,125.4,2.96,30.46,2.9,49.84,8.45,65.29,17.92l26.13-42.63c-24.63-15.09-52.57-21.82-86.68-25.06C505.38-.03,463.07,0,409,0v50Zm308.05,258.07c0-54.07.03-96.38-3.18-130.13-3.24-34.12-9.97-62.06-25.06-86.68l-42.63,26.12c9.47,15.45,15.02,34.83,17.92,65.29,2.93,30.83,2.96,70.36,2.96,125.4h50Zm-117.65-237.2c19.06,11.68,35.09,27.71,46.77,46.77l42.63-26.12c-15.8-25.79-37.49-47.47-63.28-63.28l-26.13,42.63ZM309,0C254.93,0,212.62-.03,178.87,3.18c-34.12,3.24-62.06,9.97-86.68,25.06l26.12,42.63c15.45-9.47,34.83-15.02,65.29-17.92,30.83-2.93,70.36-2.96,125.4-2.96V0ZM50.38,308.07c0-55.04.03-94.57,2.96-125.4,2.9-30.46,8.45-49.84,17.92-65.29l-42.63-26.12c-15.09,24.63-21.82,52.56-25.06,86.68C.35,211.69.38,254,.38,308.07h50ZM91.9,28.24c-25.79,15.8-47.47,37.49-63.28,63.28l42.63,26.12c11.68-19.06,27.71-35.09,46.77-46.77l-26.12-42.63Zm234.03,599.75c-6.77-11.43-12.71-21.52-18.48-29.45-6.09-8.35-13.06-15.86-22.74-21.49l-25.14,43.22c1.58.92,3.73,2.59,7.47,7.72,4.05,5.55,8.62,13.22,15.86,25.47l43.03-25.47Zm-107.79-11.62c14.64.25,23.91.44,30.97,1.22,6.6.73,9.16,1.8,10.66,2.68l25.14-43.22c-9.76-5.68-19.91-8-30.3-9.15-9.92-1.1-21.91-1.28-35.62-1.51l-.86,49.99Zm216.38,37.09c7.25-12.25,11.82-19.92,15.86-25.47,3.74-5.13,5.89-6.8,7.47-7.72l-25.14-43.22c-9.68,5.63-16.66,13.15-22.74,21.49-5.78,7.93-11.72,18.02-18.49,29.45l43.03,25.47Zm63.62-87.08c-13.71.24-25.7.42-35.62,1.51-10.38,1.15-20.54,3.47-30.3,9.15l25.14,43.22c1.5-.87,4.06-1.94,10.66-2.68,7.07-.78,16.34-.97,30.97-1.22l-.86-49.99Z" style="fill: #fff;"/>
      <path d="m258.71,327.67l66.67,64,133.33-133.33" style="fill: none; isolation: isolate; stroke: #cf729c; stroke-linecap: round; stroke-linejoin: round; stroke-width: 50px;"/>
    </g>
  </g>
</svg>