<?xml version="1.0" encoding="UTF-8"?>
<svg id="Layer_2" data-name="Layer 2" xmlns="http://www.w3.org/2000/svg" viewBox="0 0 716.67 716.67">
  <g id="Layer_1-2" data-name="Layer 1">
    <g>
      <circle cx="358.33" cy="358.33" r="333.33" style="fill: none; isolation: isolate; stroke: #cf729c; stroke-miterlimit: 133.33; stroke-width: 50px;"/>
      <path d="m312.77,252.82c20.27-36.37,30.41-54.56,45.57-54.56s25.29,18.19,45.57,54.56l5.25,9.41c5.76,10.34,8.64,15.5,13.13,18.91,4.49,3.41,10.09,4.68,21.27,7.21l10.19,2.3c39.37,8.91,59.06,13.36,63.74,28.42,4.69,15.06-8.74,30.75-35.58,62.14l-6.95,8.12c-7.63,8.92-11.44,13.38-13.15,18.9-1.72,5.52-1.14,11.46.01,23.37l1.05,10.84c4.06,41.87,6.09,62.81-6.17,72.12-12.26,9.31-30.69.82-67.56-16.15l-9.54-4.39c-10.48-4.82-15.71-7.24-21.27-7.24s-10.79,2.41-21.27,7.24l-9.54,4.39c-36.86,16.97-55.3,25.46-67.56,16.15-12.26-9.31-10.23-30.25-6.17-72.12l1.05-10.84c1.15-11.9,1.73-17.85.01-23.37-1.72-5.52-5.53-9.98-13.16-18.9l-6.94-8.12c-26.84-31.39-40.26-47.08-35.58-62.14,4.68-15.06,24.37-19.52,63.74-28.42l10.19-2.3c11.19-2.53,16.78-3.8,21.28-7.21,4.49-3.41,7.37-8.58,13.13-18.91l5.25-9.41Z" style="fill: none; stroke: #fff; stroke-linecap: round; stroke-miterlimit: 133.33; stroke-width: 50px;"/>
    </g>
  </g>
</svg>