<?xml version="1.0" encoding="UTF-8"?>
<svg id="Layer_2" data-name="Layer 2" xmlns="http://www.w3.org/2000/svg" viewBox="0 0 702.79 716.59">
  <g id="Layer_1-2" data-name="Layer 1">
    <g>
      <path d="m505.5,557.47c-6.95,21.28-19.17,40.54-35.6,55.93-24.38,22.83-61.96,32.9-137.13,53.04-75.17,20.14-112.76,30.21-145.28,22.63-25.68-5.99-49.01-19.46-67.04-38.7-22.83-24.38-32.9-61.96-53.04-137.13l-17.25-64.4c-20.14-75.17-30.21-112.75-22.63-145.28,5.99-25.68,19.46-49.01,38.7-67.04,24.38-22.83,61.96-32.9,137.13-53.04,14.22-3.81,27.1-7.26,38.85-10.3" style="fill: none; isolation: isolate; stroke: #cf729c; stroke-miterlimit: 133.33; stroke-width: 50px;"/>
      <path d="m325,388.25l96.59,25.88" style="fill: none; isolation: isolate; stroke: #cf729c; stroke-linecap: round; stroke-miterlimit: 133.33; stroke-width: 50px;"/>
      <path d="m635.39,379.91l17.26-64.4c20.14-75.17,30.21-112.75,22.63-145.28-5.99-25.68-19.46-49.01-38.7-67.04-24.38-22.83-61.96-32.9-137.13-53.04-75.17-20.14-112.76-30.21-145.28-22.63-25.68,5.99-49.01,19.46-67.04,38.7-19.55,20.87-29.74,51.42-44.91,106.96-2.55,9.33-5.24,19.36-8.13,30.17h0s-17.25,64.4-17.25,64.4c-20.14,75.17-30.21,112.75-22.63,145.28,5.99,25.68,19.46,49.01,38.7,67.04,24.38,22.83,61.96,32.9,137.13,53.04h0c67.75,18.15,104.97,28.13,135.47,24.36,3.34-.41,6.6-.99,9.81-1.74,25.68-5.99,49.01-19.46,67.04-38.7,22.83-24.38,32.9-61.96,53.04-137.13Z" style="fill: none; stroke: #fff; stroke-linecap: round; stroke-miterlimit: 133.33; stroke-width: 50px;"/>
      <path d="m350.9,291.67l160.99,43.14" style="fill: none; stroke: #fff; stroke-linecap: round; stroke-miterlimit: 133.33; stroke-width: 50px;"/>
    </g>
  </g>
</svg>