<?xml version="1.0" encoding="UTF-8"?>
<svg id="Layer_2" data-name="Layer 2" xmlns="http://www.w3.org/2000/svg" viewBox="0 0 398.46 88.8">
  <g id="final_" data-name="final?">
    <g>
      <path d="m101.96,86.5l-2.04-1.1c-.83-.6-1.82-1.8-2.44-2.98l-.52-1-8.17-19.9c5.84-5.05,10.03-12.07,11.47-20.27,3.33-18.93-9.33-36.97-28.27-40.29-.7-.12-1.4-.22-2.1-.3,15.63,3.77,21.76,16.19,18.94,32.24-.96,5.44-3.14,10.01-6.22,13.59-5.12,5.96-11.44,10.44-20.08,10.45-2.11,0-4.28-.18-6.49-.57-.09-.01-.18-.03-.28-.05-.95-.17-1.88-.39-2.79-.65-.21-.04-.42-.08-.63-.12-4.19-.74-10.5-.71-15.89,1.54-4.34,1.81-8.3,4.84-10.75,7.1h0l.57-1.27,2.6-5.77,2.27-5.04.48-1.07,14.48-32.22,13.03,31.76c.3,0,.6.01.9.01,8.6-.02,14.91-4.45,20.01-10.38l-13.75-33.5c-1.67-4.06-5.63-6.72-10.02-6.72h-17.9l.61,1.49c.7,1.7.67,3.62-.09,5.29L4.24,83.91c-.19.43-.51.78-.91,1.03l-2.71,1.66c-.39.24-.62.66-.62,1.11v1.09h20.9v-1.19c0-.38-.2-.74-.54-.92l-2.66-1.48c-.64-.36-.9-1.16-.6-1.83l3.91-8.7h0c7.59-6.52,16.17-10.29,26.79-8.43,1.47.26,4.66,1.19,6.05,1.62h0c.59.18,1.16.38,1.73.59.01,0,.03.01.04.02,1.4.43,2.84.78,4.32,1.04,2.42.42,4.81.58,7.16.51l5.66,13.78c.19.46.16,1.04-.21,1.36l-1.24,1.24c-.73.64-.97,1.13-.97,2.09v.29h32.37v-.9c0-.55-.26-1.18-.77-1.4h0Z" style="fill: #b7b7b8; fill-rule: evenodd;"/>
      <g>
        <path d="m162.93,81.35l-.75-.4c-.31-.22-.67-.66-.9-1.09l-.19-.37-3-7.29c2.14-1.85,3.68-4.42,4.21-7.42,1.22-6.93-3.42-13.54-10.37-14.76-.26-.04-.51-.08-.77-.11,5.73,1.38,7.98,5.93,6.95,11.81-.35,1.99-1.15,3.67-2.28,4.98-1.88,2.18-4.2,3.82-7.37,3.83-.77,0-1.57-.07-2.38-.21-.03,0-.07-.01-.1-.02-.35-.06-.69-.14-1.02-.24-.08-.02-.15-.03-.23-.04-1.54-.27-3.85-.26-5.83.57-1.59.66-3.05,1.77-3.94,2.6h0l.21-.47.95-2.11.83-1.84.18-.39,5.31-11.8,4.78,11.63c.11,0,.22,0,.33,0,3.16,0,5.47-1.63,7.34-3.8l-5.04-12.27c-.61-1.49-2.06-2.46-3.68-2.46h-6.57l.22.55c.26.62.24,1.32-.03,1.94l-12.72,28.25c-.07.16-.19.29-.33.38l-.99.61c-.14.09-.23.24-.23.41v.4h7.67v-.44c0-.14-.07-.27-.2-.34l-.97-.54c-.24-.13-.33-.42-.22-.67l1.43-3.19h0c2.78-2.39,5.93-3.77,9.83-3.09.54.09,1.71.43,2.22.59h0c.21.07.43.14.64.22,0,0,.01,0,.01,0,.51.16,1.04.29,1.58.38.89.15,1.77.21,2.63.19l2.08,5.05c.07.17.06.38-.08.5l-.46.46c-.27.23-.36.41-.36.77v.11h11.87v-.33c0-.2-.09-.43-.28-.51h0Z" style="fill: #b7b7b8; fill-rule: evenodd;"/>
        <g>
          <path d="m175.99,82.95c-2.18,0-4.14-.47-5.9-1.42-1.76-.94-3.14-2.32-4.15-4.13-1.01-1.81-1.51-4.01-1.51-6.6s.56-4.8,1.68-6.62c1.12-1.82,2.62-3.22,4.49-4.2,1.87-.98,3.93-1.46,6.17-1.46,1.82,0,3.38.3,4.66.91,1.28.61,2.26,1.38,2.93,2.33.67.94,1.01,1.94,1.01,3,0,.9-.26,1.58-.79,2.06-.53.48-1.21.72-2.04.72-.9,0-1.62-.32-2.18-.96-.56-.64-.89-1.46-.98-2.45-.03-.64-.02-1.18.02-1.63.05-.45.04-.88-.02-1.3-.13-.54-.34-.91-.65-1.1-.3-.19-.73-.29-1.27-.29-2.02,0-3.56.81-4.63,2.42-1.07,1.62-1.61,4.23-1.61,7.85,0,3.1.59,5.49,1.78,7.15,1.18,1.66,3.02,2.5,5.52,2.5,1.47,0,2.69-.28,3.65-.84s1.84-1.37,2.64-2.42l.77.58c-.8,1.92-2.02,3.38-3.67,4.39-1.65,1.01-3.61,1.51-5.88,1.51Z" style="fill: #b7b7b8; stroke: #b7b7b8; stroke-miterlimit: 10; stroke-width: 1.37px;"/>
          <path d="m199.8,58.52c2.02,0,3.74.42,5.18,1.25s2.55,1.98,3.34,3.43c.78,1.46,1.18,3.13,1.18,5.02,0,.42-.02.81-.05,1.18-.03.37-.1.71-.19,1.03h-14.45c.03,3.3.65,5.66,1.85,7.1,1.2,1.44,2.95,2.16,5.26,2.16,1.6,0,2.9-.26,3.89-.79.99-.53,1.9-1.27,2.74-2.23l.77.72c-.96,1.76-2.26,3.13-3.91,4.1-1.65.98-3.61,1.46-5.88,1.46s-4.27-.48-6-1.44-3.08-2.34-4.06-4.15c-.98-1.81-1.46-3.98-1.46-6.5s.57-4.85,1.7-6.67c1.14-1.82,2.61-3.22,4.42-4.2,1.81-.98,3.7-1.46,5.69-1.46Zm-.24,1.39c-.93,0-1.74.26-2.42.79-.69.53-1.23,1.46-1.63,2.78-.4,1.33-.63,3.19-.7,5.59h8.59c.35-3.23.22-5.57-.38-7.01-.61-1.44-1.76-2.16-3.46-2.16Z" style="fill: #b7b7b8; stroke: #b7b7b8; stroke-miterlimit: 10; stroke-width: 1.37px;"/>
        </g>
        <g>
          <path d="m132.73,39.36v-1.01l.96-.24c.64-.19,1.06-.48,1.25-.86.19-.38.29-.91.29-1.58.03-1.82.05-3.67.05-5.54v-13.18c0-1.86-.02-3.71-.05-5.57,0-.67-.1-1.19-.31-1.56-.21-.37-.63-.66-1.27-.89l-.91-.29v-1.01h11.57c4.67,0,8.07.87,10.2,2.62,2.13,1.74,3.19,4.04,3.19,6.89,0,1.79-.44,3.45-1.32,4.97-.88,1.52-2.33,2.73-4.34,3.62-2.02.9-4.74,1.34-8.16,1.34h-1.73v4.15c0,1.42.02,2.87.05,4.34,0,1.31.59,2.11,1.78,2.4l1.44.38v1.01h-12.67Zm9.41-13.68h2.02c1.6,0,2.9-.25,3.91-.74,1.01-.5,1.76-1.35,2.26-2.57.5-1.22.74-2.9.74-5.04s-.26-3.82-.79-5.02c-.53-1.2-1.32-2.05-2.38-2.54s-2.37-.74-3.94-.74h-1.78c-.03,2.21-.05,4.44-.05,6.7v9.96Z" style="fill: #b7b7b8; stroke: #b7b7b8; stroke-miterlimit: 10; stroke-width: 1.37px;"/>
          <path d="m159.17,39.36v-.91l.72-.24c.64-.16,1.08-.43,1.32-.82.24-.38.36-.9.36-1.54v-14.06c-.03-.7-.16-1.24-.38-1.61-.22-.37-.66-.62-1.3-.74l-.72-.19v-.86l7.82-2.78.58.53.43,4.22v.34c.48-.9,1.09-1.73,1.82-2.5.74-.77,1.54-1.39,2.4-1.87.86-.48,1.73-.72,2.59-.72,1.22,0,2.13.32,2.74.96.61.64.91,1.46.91,2.45,0,1.09-.3,1.91-.91,2.47-.61.56-1.34.84-2.21.84-1.28,0-2.38-.58-3.31-1.73l-.1-.1c-.32-.38-.68-.6-1.08-.65-.4-.05-.79.15-1.18.6-.32.32-.62.7-.89,1.13-.27.43-.52.94-.74,1.51v12.58c0,.61.13,1.11.38,1.51.26.4.69.68,1.3.84l1.44.43v.91h-12Z" style="fill: #b7b7b8; stroke: #b7b7b8; stroke-miterlimit: 10; stroke-width: 1.37px;"/>
          <path d="m191.86,15.6c2.02,0,3.74.42,5.18,1.25,1.44.83,2.55,1.98,3.34,3.43.78,1.46,1.18,3.13,1.18,5.02,0,.42-.02.81-.05,1.18-.03.37-.1.71-.19,1.03h-14.45c.03,3.3.65,5.66,1.85,7.1,1.2,1.44,2.95,2.16,5.26,2.16,1.6,0,2.9-.26,3.89-.79.99-.53,1.9-1.27,2.74-2.23l.77.72c-.96,1.76-2.26,3.13-3.91,4.1-1.65.98-3.61,1.46-5.88,1.46s-4.27-.48-6-1.44-3.08-2.34-4.06-4.15c-.98-1.81-1.46-3.98-1.46-6.5s.57-4.85,1.7-6.67c1.14-1.82,2.61-3.22,4.42-4.2,1.81-.98,3.7-1.46,5.69-1.46Zm-.24,1.39c-.93,0-1.74.26-2.42.79-.69.53-1.23,1.46-1.63,2.78-.4,1.33-.63,3.19-.7,5.59h8.59c.35-3.23.22-5.57-.38-7.01-.61-1.44-1.76-2.16-3.46-2.16Z" style="fill: #b7b7b8; stroke: #b7b7b8; stroke-miterlimit: 10; stroke-width: 1.37px;"/>
          <path d="m212.07,40.03c-1.54,0-2.92-.17-4.15-.5-1.23-.34-2.41-.81-3.53-1.42v-5.66h1.3l1.44,2.74c.61,1.18,1.3,2.06,2.09,2.64.78.58,1.78.86,3,.86,1.5,0,2.7-.33,3.6-.98.9-.66,1.34-1.54,1.34-2.66,0-1.02-.34-1.86-1.01-2.5-.67-.64-1.87-1.23-3.6-1.78l-2.11-.67c-1.89-.58-3.38-1.45-4.49-2.62-1.1-1.17-1.66-2.63-1.66-4.39,0-1.38.37-2.63,1.1-3.77.74-1.14,1.81-2.04,3.22-2.71,1.41-.67,3.12-1.01,5.14-1.01,1.31,0,2.52.15,3.62.46,1.1.3,2.18.73,3.24,1.27l-.29,5.14h-1.25l-1.49-2.74c-.51-1.02-1.03-1.74-1.56-2.14-.53-.4-1.34-.6-2.42-.6-1.15,0-2.17.3-3.05.89-.88.59-1.32,1.42-1.32,2.47,0,.99.37,1.8,1.1,2.42.74.62,1.92,1.21,3.55,1.75l2.06.62c2.33.74,4,1.71,4.99,2.93.99,1.22,1.49,2.67,1.49,4.37,0,2.27-.9,4.1-2.71,5.5s-4.36,2.09-7.66,2.09Z" style="fill: #b7b7b8; stroke: #b7b7b8; stroke-miterlimit: 10; stroke-width: 1.37px;"/>
          <path d="m236.31,15.6c2.02,0,3.74.42,5.18,1.25,1.44.83,2.55,1.98,3.34,3.43.78,1.46,1.18,3.13,1.18,5.02,0,.42-.02.81-.05,1.18-.03.37-.1.71-.19,1.03h-14.45c.03,3.3.65,5.66,1.85,7.1s2.95,2.16,5.26,2.16c1.6,0,2.9-.26,3.89-.79.99-.53,1.9-1.27,2.74-2.23l.77.72c-.96,1.76-2.26,3.13-3.91,4.1s-3.61,1.46-5.88,1.46-4.27-.48-6-1.44c-1.73-.96-3.08-2.34-4.06-4.15-.98-1.81-1.46-3.98-1.46-6.5s.57-4.85,1.7-6.67c1.13-1.82,2.61-3.22,4.42-4.2,1.81-.98,3.7-1.46,5.69-1.46Zm-.24,1.39c-.93,0-1.74.26-2.42.79-.69.53-1.23,1.46-1.63,2.78-.4,1.33-.63,3.19-.7,5.59h8.59c.35-3.23.22-5.57-.38-7.01s-1.76-2.16-3.46-2.16Z" style="fill: #b7b7b8; stroke: #b7b7b8; stroke-miterlimit: 10; stroke-width: 1.37px;"/>
          <path d="m248.12,39.36v-.91l.77-.19c1.06-.32,1.58-1.1,1.58-2.35v-14.16c-.03-.67-.14-1.19-.34-1.56-.19-.37-.61-.62-1.25-.74l-.77-.19v-.86l7.78-2.78.58.53.34,2.98c1.15-1.02,2.44-1.86,3.86-2.52,1.42-.66,2.82-.98,4.2-.98,2.11,0,3.74.58,4.87,1.73,1.14,1.15,1.7,2.91,1.7,5.28v13.34c0,1.25.58,2.03,1.73,2.35l.53.14v.91h-11.04v-.91l.72-.19c1.06-.35,1.58-1.14,1.58-2.35v-14.26c0-1.12-.24-1.94-.72-2.45-.48-.51-1.28-.77-2.4-.77-1.57,0-3.2.69-4.9,2.06v15.46c0,1.25.56,2.03,1.68,2.35l.48.14v.91h-10.99Z" style="fill: #b7b7b8; stroke: #b7b7b8; stroke-miterlimit: 10; stroke-width: 1.37px;"/>
          <path d="m284.31,40.03c-1.98,0-3.54-.49-4.68-1.46s-1.7-2.57-1.7-4.78c0-.77,0-1.5.02-2.18.02-.69.02-1.5.02-2.42v-11.38h-3.41v-1.06l1.3-.19c.93-.16,1.72-.45,2.38-.86.66-.42,1.26-.99,1.8-1.73l3.12-4.32h1.44l-.14,6.67h5.47v1.49h-5.52v16.37c0,1.15.25,2.02.74,2.59.5.58,1.11.86,1.85.86.64,0,1.22-.15,1.73-.46.51-.3,1.02-.71,1.54-1.22l.62.72c-.61,1.06-1.46,1.88-2.54,2.47-1.09.59-2.43.89-4.03.89Z" style="fill: #b7b7b8; stroke: #b7b7b8; stroke-miterlimit: 10; stroke-width: 1.37px;"/>
          <path d="m299.19,40.03c-1.82,0-3.37-.52-4.63-1.56-1.26-1.04-1.9-2.54-1.9-4.49,0-1.54.74-2.95,2.23-4.25s3.83-2.25,7.03-2.86c.54-.13,1.18-.25,1.9-.36.72-.11,1.43-.23,2.14-.36v-3.41c0-2.18-.27-3.68-.82-4.51-.54-.83-1.41-1.25-2.59-1.25h-.14c-.74,0-1.32.23-1.75.7-.43.46-.71,1.22-.84,2.28l-.14.62c-.1,1.28-.43,2.22-1.01,2.81-.58.59-1.3.89-2.16.89-.8,0-1.46-.25-1.99-.74-.53-.5-.79-1.14-.79-1.94,0-1.31.45-2.42,1.34-3.31.9-.9,2.09-1.57,3.58-2.02,1.49-.45,3.1-.67,4.82-.67,2.85,0,5.02.69,6.53,2.06,1.5,1.38,2.26,3.62,2.26,6.72v10.7c0,1.38.66,2.06,1.97,2.06h1.1l.48.53c-.58.74-1.22,1.3-1.92,1.7-.7.4-1.66.6-2.88.6-1.38,0-2.47-.33-3.29-.98-.82-.66-1.35-1.53-1.61-2.62-1.02,1.09-2.03,1.97-3.02,2.64-.99.67-2.29,1.01-3.89,1.01Zm2.78-3.07c.64,0,1.25-.14,1.82-.43s1.3-.77,2.16-1.44v-7.68c-.83.13-1.68.29-2.54.48-1.38.32-2.49.91-3.34,1.78-.85.86-1.27,2.03-1.27,3.5,0,1.28.3,2.23.89,2.86s1.35.94,2.28.94Z" style="fill: #b7b7b8; stroke: #b7b7b8; stroke-miterlimit: 10; stroke-width: 1.37px;"/>
          <path d="m325.54,40.03c-1.98,0-3.54-.49-4.68-1.46s-1.7-2.57-1.7-4.78c0-.77,0-1.5.02-2.18.02-.69.02-1.5.02-2.42v-11.38h-3.41v-1.06l1.3-.19c.93-.16,1.72-.45,2.38-.86.66-.42,1.26-.99,1.8-1.73l3.12-4.32h1.44l-.14,6.67h5.47v1.49h-5.52v16.37c0,1.15.25,2.02.74,2.59.5.58,1.11.86,1.85.86.64,0,1.22-.15,1.73-.46.51-.3,1.02-.71,1.54-1.22l.62.72c-.61,1.06-1.46,1.88-2.54,2.47-1.09.59-2.43.89-4.03.89Z" style="fill: #b7b7b8; stroke: #b7b7b8; stroke-miterlimit: 10; stroke-width: 1.37px;"/>
          <path d="m333.51,39.36v-.91l.72-.19c.64-.19,1.07-.48,1.3-.86.22-.38.35-.9.38-1.54v-11.59c0-.85-.02-1.72-.05-2.62,0-.64-.12-1.14-.36-1.51-.24-.37-.68-.62-1.32-.74l-.67-.14v-.86l8.4-2.78.58.53-.14,6.82v12.96c0,.64.12,1.15.36,1.54.24.38.66.67,1.27.86l.53.14v.91h-10.99Zm5.52-26.4c-1.06,0-1.95-.34-2.69-1.01-.74-.67-1.1-1.52-1.1-2.54s.37-1.91,1.1-2.57c.74-.66,1.63-.98,2.69-.98s1.95.33,2.69.98c.74.66,1.1,1.51,1.1,2.57s-.37,1.87-1.1,2.54c-.74.67-1.63,1.01-2.69,1.01Z" style="fill: #b7b7b8; stroke: #b7b7b8; stroke-miterlimit: 10; stroke-width: 1.37px;"/>
          <path d="m358.47,40.03c-2.37,0-4.44-.5-6.22-1.49-1.78-.99-3.15-2.4-4.13-4.22-.98-1.82-1.46-4-1.46-6.53s.52-4.7,1.56-6.53c1.04-1.82,2.45-3.22,4.22-4.2,1.78-.98,3.78-1.46,6.02-1.46s4.25.49,6.02,1.46c1.78.98,3.18,2.37,4.22,4.18,1.04,1.81,1.56,3.99,1.56,6.55s-.49,4.71-1.46,6.55c-.98,1.84-2.34,3.25-4.1,4.22-1.76.98-3.84,1.46-6.24,1.46Zm0-1.34c1.15,0,2.09-.31,2.81-.94.72-.62,1.24-1.72,1.56-3.29.32-1.57.48-3.76.48-6.58s-.16-5.06-.48-6.65c-.32-1.58-.84-2.69-1.56-3.31-.72-.62-1.66-.94-2.81-.94s-2.08.31-2.78.94-1.22,1.73-1.56,3.31-.5,3.8-.5,6.65.17,5.01.5,6.58c.34,1.57.86,2.66,1.56,3.29s1.63.94,2.78.94Z" style="fill: #b7b7b8; stroke: #b7b7b8; stroke-miterlimit: 10; stroke-width: 1.37px;"/>
          <path d="m372.19,39.36v-.91l.77-.19c1.06-.32,1.58-1.1,1.58-2.35v-14.16c-.03-.67-.14-1.19-.34-1.56-.19-.37-.61-.62-1.25-.74l-.77-.19v-.86l7.78-2.78.58.53.34,2.98c1.15-1.02,2.44-1.86,3.86-2.52,1.42-.66,2.82-.98,4.2-.98,2.11,0,3.74.58,4.87,1.73,1.14,1.15,1.7,2.91,1.7,5.28v13.34c0,1.25.58,2.03,1.73,2.35l.53.14v.91h-11.04v-.91l.72-.19c1.06-.35,1.58-1.14,1.58-2.35v-14.26c0-1.12-.24-1.94-.72-2.45-.48-.51-1.28-.77-2.4-.77-1.57,0-3.2.69-4.9,2.06v15.46c0,1.25.56,2.03,1.68,2.35l.48.14v.91h-10.99Z" style="fill: #b7b7b8; stroke: #b7b7b8; stroke-miterlimit: 10; stroke-width: 1.37px;"/>
        </g>
      </g>
    </g>
  </g>
</svg>