<?xml version="1.0" encoding="utf-8"?>
<!-- Generator: Adobe Illustrator 26.5.0, SVG Export Plug-In . SVG Version: 6.00 Build 0)  -->
<svg version="1.1" id="Layer_1" xmlns="http://www.w3.org/2000/svg" xmlns:xlink="http://www.w3.org/1999/xlink" x="0px" y="0px"
	 viewBox="0 0 512 512" style="enable-background:new 0 0 512 512;" xml:space="preserve">
<style type="text/css">
	.st0{fill:url(#XMLID_00000132777585306698434580000006570299966310357380_);}
	.st1{fill:#FFFFFF;}
</style>
<g id="XMLID_2_">
	
		<linearGradient id="XMLID_00000009586835841274649490000002664324248613936030_" gradientUnits="userSpaceOnUse" x1="-428.1284" y1="643.92" x2="-424.6689" y2="643.92" gradientTransform="matrix(0 -148 148 0 -95044.1641 -62851)">
		<stop  offset="0" style="stop-color:#0054EB"/>
		<stop  offset="4.926110e-03" style="stop-color:#0054EB"/>
		<stop  offset="1" style="stop-color:#53CFFA"/>
	</linearGradient>
	<path id="XMLID_4_" style="fill:url(#XMLID_00000009586835841274649490000002664324248613936030_);" d="M397.82,512H114.18
		C51.2,512,0,460.94,0,397.82V114.18C0,51.2,51.06,0,114.18,0h283.63C460.8,0,512,51.06,512,114.18v283.63
		C512,460.94,460.94,512,397.82,512z"/>
	<path id="XMLID_13_" class="st1" d="M318.84,401.32h-50.22c-3.79,0-6.87-3.09-6.87-6.87V273.39h-13.89v121.06
		c0,3.79-3.09,6.87-6.87,6.87h-50.78c-3.93,0-7.43,2.95-7.43,6.87c0,4.35,3.51,7.01,7.72,7.01h127.93c4.35,0,7.86-2.67,7.72-7.01
		C326.28,404.27,322.77,401.32,318.84,401.32z"/>
	<path id="XMLID_15_" class="st1" d="M100.72,249.13c2.81,8.98,11.22,15.57,21.18,15.57h268.06c9.96,0,18.38-6.59,21.18-15.57
		H100.72z"/>
	<path id="XMLID_16_" class="st1" d="M393.19,129.75c0-9.54-7.72-17.25-17.25-17.25H134.94c-9.54,0-17.25,7.72-17.25,17.25
		l-3.51,110.12h282.51L393.19,129.75z"/>
	<path id="XMLID_17_" class="st1" d="M152.9,89.07c0-5.75,4.63-10.38,10.38-10.38h62.84v-6.87h-62.84
		c-9.54,0-17.25,7.72-17.25,17.25v52.46h6.87L152.9,89.07L152.9,89.07z"/>
	<path id="XMLID_18_" class="st1" d="M243.38,90.06H212.8c-6.59,0-12.06-5.47-12.06-12.06V74.2c0-6.59,5.47-12.06,12.06-12.06h30.58
		c6.59,0,12.06,5.47,12.06,12.06v3.79C255.44,84.59,249.97,90.06,243.38,90.06z"/>
</g>
</svg>
