<?xml version="1.0" encoding="UTF-8"?>
<svg id="Layer_2" data-name="Layer 2" xmlns="http://www.w3.org/2000/svg" viewBox="0 0 302 261.15">
  <g id="final_" data-name="final?">
    <path d="m299.75,254.38l-5.99-3.24c-2.45-1.75-5.35-5.29-7.18-8.76l-1.54-2.94-24.01-58.53c17.16-14.86,29.5-35.51,33.73-59.61,9.78-55.67-27.44-108.73-83.11-118.5-2.05-.36-4.11-.66-6.16-.89,45.94,11.1,63.97,47.61,55.68,94.82-2.81,16-9.22,29.44-18.28,39.98-15.05,17.53-33.63,30.7-59.03,30.74-6.21,0-12.59-.54-19.09-1.68-.27-.04-.54-.09-.81-.16-2.8-.49-5.52-1.14-8.2-1.9-.61-.13-1.23-.24-1.85-.34-12.33-2.17-30.86-2.09-46.7,4.54-12.75,5.33-24.41,14.22-31.61,20.89h0s1.68-3.74,1.68-3.74l7.63-16.98,6.66-14.81,1.41-3.14,42.57-94.75,38.32,93.39c.88.02,1.76.03,2.64.03,25.29-.05,43.82-13.1,58.83-30.52l-40.41-98.52c-4.9-11.95-16.54-19.76-29.46-19.76h-52.63l1.8,4.38c2.05,5.01,1.96,10.64-.26,15.57L12.46,246.77c-.57,1.25-1.5,2.3-2.67,3.03l-7.97,4.89c-1.14.7-1.82,1.93-1.82,3.26v3.2h61.43v-3.51c0-1.13-.6-2.17-1.59-2.71l-7.81-4.36c-1.89-1.06-2.66-3.4-1.77-5.38l11.49-25.58h0c22.3-19.17,47.54-30.27,78.76-24.78,4.33.76,13.7,3.49,17.79,4.76h.02c1.72.53,3.42,1.11,5.1,1.73.04,0,.1.03.12.05,4.12,1.27,8.35,2.3,12.7,3.06,7.1,1.24,14.15,1.72,21.06,1.5l16.63,40.52c.55,1.34.48,3.05-.61,4.01l-3.66,3.66c-2.14,1.88-2.85,3.32-2.85,6.16v.86h95.17v-2.66c0-1.62-.75-3.47-2.25-4.11Z" style="fill: #b7b7b7;"/>
  </g>
</svg>