<svg height="171.792" viewBox="0 0 923.575 171.792" width="923.575" xmlns="http://www.w3.org/2000/svg"><path d="m494.094 0h429.481v171.792h-429.481z"/><path d="m160.065 134.027c-20.628 0-34.8-11.964-34.8-27.645 0-13.205 9.379-23.107 23.132-28.472 4.583 4.332 10 9.078 16.045 14.443l30.424 27.026c-9.8 9.492-21.463 14.648-34.8 14.648m85.229 11.349-30.842-27.439a8.62 8.62 0 0 1 1.043-1.443l27.3-39.612h-16.673l-22.089 31.563-26.046-23.313c-23.754-20.632-36.259-30.944-36.259-45.8 0-13.824 10.21-23.312 24.589-23.312 13.336 0 23.341 8.045 25.424 23.518h15.836c-2.709-23.519-18.546-37.548-41.052-37.548-23.754 0-41.26 15.267-41.26 36.928 0 10.316 4.169 18.775 13.127 28.886-16.459 6.6-28.755 20.218-28.755 38.784 0 24.345 20.006 41.469 50.221 41.469 18.337 0 33.338-6.6 45.635-19.185l18.545 16.5z" fill="#fff" transform="translate(537.351 10.067)"/><path d="m159.672 127.084 84.516-116.2v-8.19h-107.888v14.732h84.541l-86.582 116v8.389h109.902v-14.731z" fill="#fff" transform="translate(661.916 13.63)"/><path d="m186.324 2.694v62.806h-82.447v-62.806h-16.325v139.119h16.325v-61.374h82.447v61.374h16.325v-139.119z" fill="#fff" transform="translate(425.583 13.632)"/><path d="m130.232 146.734-10.868-10.1 58.813-63.31a33.988 33.988 0 0 0 -3.394-48.762 33.843 33.843 0 0 0 -47.1 3.252l-.168.182-12.515 12.98-12.714-13.163a33.988 33.988 0 0 0 -59.138 20.437 33.7 33.7 0 0 0 8.623 25.05l41.029 43.274-10.769 10.208-41.217-43.482a48.826 48.826 0 0 1 4.829-70.095 48.688 48.688 0 0 1 67.579 4.569l1.778 1.84 1.767-1.835a48.821 48.821 0 0 1 72.392 65.521l-.071.079z" fill="#96d2e6" transform="translate(125.372 8.624)"/><g fill="#d8356e"><path d="m123.843 119.482 20.51-16.514c-5.181-1.593-12.486-1.236-17.291 1.369l-8.754 4.751-13.208-.065-.026-98.823a7.509 7.509 0 1 1 15.019 0l.014 81.946a35.229 35.229 0 0 1 28.793-1.982 14.523 14.523 0 0 1 9.318 10.622 14.1 14.1 0 0 1 -4.986 13.891l-19.751 16a42.086 42.086 0 0 1 -28.469 11.059l-37.794.072v-15.017h37.779a28.114 28.114 0 0 0 18.848-7.309" transform="translate(322.67 13.631)"/><path d="m68.807 9.213a7.51 7.51 0 0 1 8.01-7.493 7.7 7.7 0 0 1 7.008 7.78v69.424h-15.018z" transform="translate(330.723 8.625)"/><path d="m71.66 2.694a7.51 7.51 0 0 1 7.511 7.506v63.717h-15.022v-63.717a7.51 7.51 0 0 1 7.511-7.506" transform="translate(307.15 13.632)"/><path d="m76.228 103.827a140.833 140.833 0 0 1 -1.723-21.854v-70.237a7.5 7.5 0 0 0 -15 0v70.237a155.966 155.966 0 0 0 1.55 21.883z" transform="translate(283.649 21.455)"/></g><path d="m152.815 89.471-.186-.385-15.783-24.835a80.8 80.8 0 0 0 -.442-9.279c-1.434-12.765-8.3-25.722-18.841-35.551-8.669-8.084-23.82-17.721-46.778-17.721h-.025a67.876 67.876 0 0 0 -67.877 67.885v1.43a59.722 59.722 0 0 0 21.552 46.011l10.756 8.965a7.849 7.849 0 0 1 2.572 7.931l-3.279 12.9h15.494l2.33-9.244a22.757 22.757 0 0 0 -7.432-22.978l-10.76-8.965a44.925 44.925 0 0 1 -16.216-34.62v-1.225a52.727 52.727 0 0 1 52.862-53.05h.021c31.984 0 48.827 23.242 50.7 39.892a69.36 69.36 0 0 1 .317 9.368l-.1 2.337 14.1 22.183-12.708 3.56.014 32.27a5.445 5.445 0 0 1 -5.441 5.444h-15.242l-3.754 15.026h19.169a20.268 20.268 0 0 0 20.271-20.278l-.007-21.213 8.691-2.433.132-.039a9.611 9.611 0 0 0 5.89-13.386" fill="#ff8c41" transform="translate(-2.883 8.624)"/></svg>