<?xml version="1.0" encoding="UTF-8" standalone="no"?>
<svg
   xmlns:dc="http://purl.org/dc/elements/1.1/"
   xmlns:cc="http://creativecommons.org/ns#"
   xmlns:rdf="http://www.w3.org/1999/02/22-rdf-syntax-ns#"
   xmlns:svg="http://www.w3.org/2000/svg"
   xmlns="http://www.w3.org/2000/svg"
   viewBox="0 0 1367.3867 434.79999"
   height="434.79999"
   width="1367.3867"
   xml:space="preserve"
   id="svg2"
   version="1.1"><metadata
     id="metadata8"><rdf:RDF><cc:Work
         rdf:about=""><dc:format>image/svg+xml</dc:format><dc:type
           rdf:resource="http://purl.org/dc/dcmitype/StillImage" /></cc:Work></rdf:RDF></metadata><defs
     id="defs6" /><g
     transform="matrix(1.3333333,0,0,-1.3333333,0,434.8)"
     id="g10"><g
       transform="scale(0.1)"
       id="g12"><path
         id="path14"
         style="fill:#010a10;fill-opacity:1;fill-rule:nonzero;stroke:none"
         d="m 9162.74,2214.39 c -261.65,0 -448.21,-104.21 -569.32,-346.47 v 297.99 H 8152.47 V 547.52 h 450.63 v 719.55 c 0,424.01 213.18,542.71 426.41,542.71 278.6,0 324.61,-205.92 324.61,-453.04 V 547.52 h 450.63 v 932.78 c 0,537.84 -283.46,734.09 -642.01,734.09" /><path
         id="path16"
         style="fill:#010a10;fill-opacity:1;fill-rule:nonzero;stroke:none"
         d="m 7134.93,879.449 c -278.6,0 -455.49,210.781 -455.49,477.291 0,266.47 176.89,477.25 455.49,477.25 278.6,0 455.48,-210.78 455.48,-477.25 0,-266.51 -176.88,-477.291 -455.48,-477.291 z m 0,1334.941 c -559.65,0 -913.38,-373.13 -913.38,-857.65 0,-484.56 353.73,-857.638 913.38,-857.638 559.65,0 913.38,373.078 913.38,857.638 0,484.52 -353.73,857.65 -913.38,857.65" /><path
         id="path18"
         style="fill:#010a10;fill-opacity:1;fill-rule:nonzero;stroke:none"
         d="m 3033.28,879.449 c -268.93,0 -436.09,210.781 -436.09,477.291 0,266.47 167.16,477.25 436.09,477.25 288.27,0 474.83,-210.78 474.83,-477.25 0,-266.51 -186.56,-477.291 -474.83,-477.291 z m 501.5,988.471 c -106.62,266.51 -334.34,346.47 -562.1,346.47 -443.36,0 -833.39,-314.99 -833.39,-857.65 0,-542.701 390.03,-857.638 833.39,-857.638 227.76,0 455.48,79.949 562.1,346.418 v -298 h 440.9 v 1618.39 h -440.9 v -297.99" /><path
         id="path20"
         style="fill:#010a10;fill-opacity:1;fill-rule:nonzero;stroke:none"
         d="M 1843.71,2165.91 1410.03,1260.58 976.387,2165.91 H 450.625 L 1364.01,450.629 h 72.68 l 913.38,1715.281 h -506.36" /><path
         id="path22"
         style="fill:#010a10;fill-opacity:1;fill-rule:nonzero;stroke:none"
         d="M 4133.18,547.52 H 4583.8 V 2810.38 H 4133.18 V 547.52" /><path
         id="path24"
         style="fill:#010a10;fill-opacity:1;fill-rule:nonzero;stroke:none"
         d="m 4687.96,1356.74 c 0,-474.881 314.99,-857.638 906.12,-857.638 203.51,0 409.42,46.019 562.05,167.168 v 394.88 l -31.48,14.54 c -181.7,-155.042 -331.92,-191.381 -482.1,-191.381 -392.48,0 -496.69,273.741 -496.69,472.431 0,198.65 104.21,472.43 496.69,472.43 150.18,0 300.4,-36.34 482.1,-191.42 l 31.48,14.53 v 394.94 c -152.63,121.1 -358.54,167.17 -562.05,167.17 -591.13,0 -906.12,-382.81 -906.12,-857.65" /></g></g></svg>